<mxfile host="app.diagrams.net" agent="Mozilla/5.0 (Macintosh; Intel Mac OS X 10_15_7) AppleWebKit/605.1.15 (KHTML, like Gecko) Version/17.6 Safari/605.1.15" version="26.0.4">
  <diagram name="第 1 页" id="WonDsTz883GV0IO8iULW">
    <mxGraphModel dx="1377" dy="715" grid="1" gridSize="10" guides="1" tooltips="1" connect="1" arrows="1" fold="1" page="1" pageScale="1" pageWidth="827" pageHeight="1169" math="0" shadow="0">
      <root>
        <mxCell id="0" />
        <mxCell id="1" parent="0" />
        <mxCell id="YdhFGvS16HfIzz-LFWVd-9" value="" style="rounded=0;whiteSpace=wrap;html=1;" vertex="1" parent="1">
          <mxGeometry x="345" y="230" width="425" height="160" as="geometry" />
        </mxCell>
        <mxCell id="YdhFGvS16HfIzz-LFWVd-1" value="DB2" style="shape=datastore;whiteSpace=wrap;html=1;fillColor=#f5f5f5;fontColor=#333333;strokeColor=#666666;" vertex="1" parent="1">
          <mxGeometry x="70" y="245" width="90" height="110" as="geometry" />
        </mxCell>
        <mxCell id="YdhFGvS16HfIzz-LFWVd-5" style="edgeStyle=orthogonalEdgeStyle;rounded=0;orthogonalLoop=1;jettySize=auto;html=1;exitX=0;exitY=0.5;exitDx=0;exitDy=0;entryX=1;entryY=0.5;entryDx=0;entryDy=0;startArrow=classic;startFill=1;strokeWidth=2;" edge="1" parent="1" source="YdhFGvS16HfIzz-LFWVd-2" target="YdhFGvS16HfIzz-LFWVd-1">
          <mxGeometry relative="1" as="geometry" />
        </mxCell>
        <mxCell id="YdhFGvS16HfIzz-LFWVd-6" value="DB2 DBLink" style="edgeLabel;html=1;align=center;verticalAlign=middle;resizable=0;points=[];" vertex="1" connectable="0" parent="YdhFGvS16HfIzz-LFWVd-5">
          <mxGeometry x="-0.2273" y="1" relative="1" as="geometry">
            <mxPoint x="-25" y="-16" as="offset" />
          </mxGeometry>
        </mxCell>
        <mxCell id="YdhFGvS16HfIzz-LFWVd-2" value="CirroData-OLAP&lt;div&gt;X86&lt;/div&gt;" style="shape=datastore;whiteSpace=wrap;html=1;fillColor=#dae8fc;strokeColor=#6c8ebf;" vertex="1" parent="1">
          <mxGeometry x="360" y="245" width="120" height="110" as="geometry" />
        </mxCell>
        <mxCell id="YdhFGvS16HfIzz-LFWVd-7" value="CirroData-OLAP&lt;div&gt;(信创)&lt;/div&gt;" style="shape=datastore;whiteSpace=wrap;html=1;fillColor=#dae8fc;strokeColor=#6c8ebf;" vertex="1" parent="1">
          <mxGeometry x="506" y="245" width="120" height="110" as="geometry" />
        </mxCell>
        <mxCell id="YdhFGvS16HfIzz-LFWVd-8" value="CirroData-OLAP&lt;div&gt;(信创)&lt;br&gt;&lt;/div&gt;" style="shape=datastore;whiteSpace=wrap;html=1;fillColor=#dae8fc;strokeColor=#6c8ebf;" vertex="1" parent="1">
          <mxGeometry x="636" y="245" width="120" height="110" as="geometry" />
        </mxCell>
        <mxCell id="YdhFGvS16HfIzz-LFWVd-11" value="" style="endArrow=none;html=1;rounded=0;" edge="1" parent="1" source="YdhFGvS16HfIzz-LFWVd-2" target="YdhFGvS16HfIzz-LFWVd-9">
          <mxGeometry width="50" height="50" relative="1" as="geometry">
            <mxPoint x="390" y="310" as="sourcePoint" />
            <mxPoint x="440" y="260" as="targetPoint" />
          </mxGeometry>
        </mxCell>
        <mxCell id="YdhFGvS16HfIzz-LFWVd-12" value="" style="endArrow=none;html=1;rounded=0;dashed=1;" edge="1" parent="1">
          <mxGeometry width="50" height="50" relative="1" as="geometry">
            <mxPoint x="490" y="240" as="sourcePoint" />
            <mxPoint x="490" y="360" as="targetPoint" />
            <Array as="points">
              <mxPoint x="490" y="240" />
            </Array>
          </mxGeometry>
        </mxCell>
        <mxCell id="YdhFGvS16HfIzz-LFWVd-13" value="Text" style="text;html=1;align=center;verticalAlign=middle;whiteSpace=wrap;rounded=0;" vertex="1" parent="1">
          <mxGeometry x="380" y="270" width="60" height="30" as="geometry" />
        </mxCell>
        <mxCell id="YdhFGvS16HfIzz-LFWVd-14" value="CirroData-OLAP混搭场景" style="text;html=1;align=center;verticalAlign=middle;whiteSpace=wrap;rounded=0;" vertex="1" parent="1">
          <mxGeometry x="460" y="370" width="160" height="20" as="geometry" />
        </mxCell>
      </root>
    </mxGraphModel>
  </diagram>
</mxfile>
